<?xml version="1.0" encoding="UTF-8" standalone="no"?>
<!DOCTYPE svg PUBLIC "-//W3C//DTD SVG 1.1//EN" "http://www.w3.org/Graphics/SVG/1.1/DTD/svg11.dtd">
<svg width="100%" height="100%" viewBox="0 0 76 99" version="1.1" xmlns="http://www.w3.org/2000/svg" xmlns:xlink="http://www.w3.org/1999/xlink" xml:space="preserve" xmlns:serif="http://www.serif.com/" style="fill-rule:evenodd;clip-rule:evenodd;stroke-linejoin:round;stroke-miterlimit:2;">
    <g transform="matrix(1,0,0,1,-192.452,-102.59)">
        <path d="M237.227,157.504C238.869,158.977 240.491,160.665 242.092,162.566C245.092,166.129 249.311,172.34 254.748,181.199C258.17,186.777 260.912,190.973 262.975,193.785L268.178,200.816L251.444,200.816L247.16,194.344C247.02,194.11 246.739,193.711 246.317,193.148L243.579,189.279L239.225,182.103L234.52,174.435C231.618,170.402 228.958,167.192 226.541,164.805C224.875,163.16 223.321,161.832 221.876,160.825C227.232,159.939 232.589,158.747 237.227,157.504ZM206.514,158.066L206.514,200.816L192.452,200.816L192.452,102.59L217.061,102.59C226.998,102.59 234.885,105.051 240.721,109.973C246.557,114.895 249.475,121.551 249.475,129.941C249.475,135.66 248.045,140.606 245.186,144.777C242.327,148.949 238.225,152.066 232.881,154.129L232.882,154.129C225.418,156.016 217.384,157.421 208.337,157.968L206.514,158.066ZM210.733,114.543L206.514,114.543L206.514,145.551L211.858,145.551C218.983,145.551 223.87,144.941 226.518,143.723C229.166,142.504 231.229,140.664 232.705,138.203C234.182,135.742 234.92,132.941 234.92,129.801C234.92,126.707 234.1,123.906 232.459,121.398C230.819,118.891 228.51,117.121 225.534,116.09C222.557,115.059 217.623,114.543 210.733,114.543Z"/>
    </g>
</svg>
