<?xml version="1.0" encoding="UTF-8" standalone="no"?>
<!DOCTYPE svg PUBLIC "-//W3C//DTD SVG 1.1//EN" "http://www.w3.org/Graphics/SVG/1.1/DTD/svg11.dtd">
<svg width="100%" height="100%" viewBox="0 0 428 290" version="1.1" xmlns="http://www.w3.org/2000/svg" xmlns:xlink="http://www.w3.org/1999/xlink" xml:space="preserve" xmlns:serif="http://www.serif.com/" style="fill-rule:evenodd;clip-rule:evenodd;stroke-linejoin:round;stroke-miterlimit:2;">
    <g transform="matrix(1,0,0,1,-95.5251,-31.7715)">
        <rect x="182.347" y="90.886" width="80.103" height="53.145" style="fill:rgb(235,235,235);"/>
    </g>
    <g transform="matrix(1,0,0,1,-182.347,-31.7715)">
        <rect x="182.347" y="90.886" width="80.103" height="53.145" style="fill:rgb(235,235,235);"/>
    </g>
    <g transform="matrix(1,0,0,1,-182.347,27.3427)">
        <rect x="182.347" y="90.886" width="80.103" height="53.145" style="fill:rgb(235,235,235);"/>
    </g>
    <g transform="matrix(1,0,0,1,-182.347,86.457)">
        <rect x="182.347" y="90.886" width="80.103" height="53.145" style="fill:rgb(235,235,235);"/>
    </g>
    <g transform="matrix(1,0,0,1,-182.347,145.571)">
        <rect x="182.347" y="90.886" width="80.103" height="53.145" style="fill:rgb(235,235,235);"/>
    </g>
    <g transform="matrix(1,0,0,1,-8.70367,-31.7715)">
        <rect x="182.347" y="90.886" width="80.103" height="53.145" style="fill:rgb(235,235,235);"/>
    </g>
    <g transform="matrix(5.33551,0,0,1,-972.912,-90.8858)">
        <rect x="182.347" y="90.886" width="80.103" height="53.145" style="fill:rgb(235,235,235);"/>
    </g>
    <g transform="matrix(1,0,0,1,-95.5251,27.3427)">
        <rect x="182.347" y="90.886" width="80.103" height="53.145" style="fill:rgb(235,235,235);"/>
    </g>
    <g transform="matrix(1,0,0,1,-95.5251,86.457)">
        <rect x="182.347" y="90.886" width="80.103" height="53.145" style="fill:rgb(235,235,235);"/>
    </g>
    <g transform="matrix(1,0,0,1,-95.5251,145.571)">
        <rect x="182.347" y="90.886" width="80.103" height="53.145" style="fill:rgb(235,235,235);"/>
    </g>
    <g transform="matrix(1,0,0,1,78.1178,-31.7715)">
        <rect x="182.347" y="90.886" width="80.103" height="53.145" style="fill:rgb(235,235,235);"/>
    </g>
    <g transform="matrix(1,0,0,1,-8.70367,27.3427)">
        <rect x="182.347" y="90.886" width="80.103" height="53.145" style="fill:rgb(235,235,235);"/>
    </g>
    <g transform="matrix(1,0,0,1,-8.70367,86.457)">
        <rect x="182.347" y="90.886" width="80.103" height="53.145" style="fill:rgb(235,235,235);"/>
    </g>
    <g transform="matrix(1,0,0,1,-8.70367,145.571)">
        <rect x="182.347" y="90.886" width="80.103" height="53.145" style="fill:rgb(235,235,235);"/>
    </g>
    <g transform="matrix(1,0,0,1,78.1178,145.571)">
        <rect x="182.347" y="90.886" width="80.103" height="53.145" style="fill:rgb(235,235,235);"/>
    </g>
    <g transform="matrix(1,0,0,1,164.939,145.571)">
        <rect x="182.347" y="90.886" width="80.103" height="53.145" style="fill:rgb(235,235,235);"/>
    </g>
    <g transform="matrix(1,0,0,1,164.939,-31.7715)">
        <rect x="182.347" y="90.886" width="80.103" height="53.145" style="fill:rgb(235,235,235);"/>
    </g>
    <g transform="matrix(1,0,0,1,78.1178,27.3427)">
        <rect x="182.347" y="90.886" width="80.103" height="53.145" style="fill:rgb(235,235,235);"/>
    </g>
    <g transform="matrix(1,0,0,1,78.1178,86.457)">
        <rect x="182.347" y="90.886" width="80.103" height="53.145" style="fill:rgb(235,235,235);"/>
    </g>
    <g transform="matrix(1,0,0,1,164.939,27.3427)">
        <rect x="182.347" y="90.886" width="80.103" height="53.145" style="fill:rgb(235,235,235);"/>
    </g>
    <g transform="matrix(1,0,0,1,164.939,86.457)">
        <rect x="182.347" y="90.886" width="80.103" height="53.145" style="fill:rgb(235,235,235);"/>
    </g>
</svg>
