<svg width="533" height="664" viewBox="0 0 533 664" fill="none" xmlns="http://www.w3.org/2000/svg">
<path d="M168.037 476.727L90.9054 498.343L105.247 549.517L182.378 527.9L168.037 476.727Z" fill="#F0A202"/>
<path d="M183.803 533.032L106.672 554.648L121.014 605.822L198.145 584.205L183.803 533.032Z" fill="#0E1428"/>
<path d="M199.942 590.568L122.811 612.185L137.153 663.359L214.284 641.742L199.942 590.568Z" fill="#F18805"/>
<path d="M319.285 372.946L242.154 394.563L256.495 445.736L333.627 424.119L319.285 372.946Z" fill="#F18805"/>
<path d="M470.536 269.164L59.0021 384.501L73.344 435.674L484.878 320.337L470.536 269.164Z" fill="#D9D9D9"/>
<path d="M251.637 453.297L174.506 474.913L188.848 526.087L265.979 504.47L251.637 453.297Z" fill="#F0A202"/>
<path d="M267.576 509.554L190.445 531.17L204.786 582.344L281.917 560.727L267.576 509.554Z" fill="#0E1428"/>
<path d="M283.543 567.138L206.412 588.755L220.753 639.929L297.884 618.312L283.543 567.138Z" fill="#F18805"/>
<path d="M402.885 349.516L325.754 371.133L340.096 422.306L417.227 400.689L402.885 349.516Z" fill="#F18805"/>
<path d="M335.237 429.867L258.106 451.484L272.448 502.657L349.579 481.04L335.237 429.867Z" fill="#F18805"/>
<path d="M351.348 486.076L274.217 507.692L288.559 558.866L365.69 537.249L351.348 486.076Z" fill="#D95D39"/>
<path d="M367.143 543.709L290.012 565.325L304.354 616.499L381.485 594.882L367.143 543.709Z" fill="#F18805"/>
<path d="M450.743 520.279L373.612 541.896L387.954 593.069L465.085 571.452L450.743 520.279Z" fill="#F18805"/>
<path d="M486.485 326.086L409.354 347.703L423.696 398.876L500.827 377.259L486.485 326.086Z" fill="#F0A202"/>
<path d="M418.838 406.437L341.707 428.054L356.049 479.227L433.18 457.61L418.838 406.437Z" fill="#7B9E89"/>
<path d="M435.12 462.598L357.989 484.214L372.331 535.388L449.462 513.771L435.12 462.598Z" fill="#D95D39"/>
<path d="M502.101 382.864L424.97 404.481L439.311 455.654L516.443 434.037L502.101 382.864Z" fill="#0E1428"/>
<path d="M518.09 439.012L440.959 460.628L455.301 511.802L532.432 490.185L518.09 439.012Z" fill="#D95D39"/>
<path d="M113.859 125.127L40.2271 106.405L28.0734 154.205L101.705 172.927L113.859 125.127Z" fill="#F0A202"/>
<path d="M100.22 178.765L26.5889 160.044L14.4352 207.844L88.0666 226.565L100.22 178.765Z" fill="#D95D39"/>
<path d="M86.6672 232.069L13.0358 213.348L0.88208 261.148L74.5135 279.869L86.6672 232.069Z" fill="#7B9E89"/>
<path d="M286.992 112.541L213.36 93.8197L201.207 141.62L274.838 160.342L286.992 112.541Z" fill="#0E1428"/>
<path d="M460.128 99.9565L67.267 0.0673218L55.1133 47.8676L447.974 147.757L460.128 99.9565Z" fill="#F18805"/>
<path d="M193.666 145.419L120.035 126.697L107.881 174.497L181.512 193.219L193.666 145.419Z" fill="#F0A202"/>
<path d="M180.192 199.099L106.56 180.377L94.4064 228.177L168.038 246.899L180.192 199.099Z" fill="#D95D39"/>
<path d="M166.475 252.361L92.8433 233.639L80.6896 281.44L154.321 300.161L166.475 252.361Z" fill="#7B9E89"/>
<path d="M366.799 132.833L293.168 114.112L281.014 161.912L354.645 180.633L366.799 132.833Z" fill="#F0A202"/>
<path d="M273.473 165.71L199.842 146.989L187.688 194.789L261.319 213.511L273.473 165.71Z" fill="#D95D39"/>
<path d="M260.163 219.432L186.531 200.711L174.378 248.511L248.009 267.233L260.163 219.432Z" fill="#D95D39"/>
<path d="M246.282 272.653L172.65 253.931L160.497 301.732L234.128 320.453L246.282 272.653Z" fill="#0E1428"/>
<path d="M326.089 292.945L252.457 274.223L240.304 322.023L313.935 340.745L326.089 292.945Z" fill="#0E1428"/>
<path d="M446.606 153.125L372.974 134.403L360.821 182.204L434.452 200.925L446.606 153.125Z" fill="#F0A202"/>
<path d="M353.28 186.002L279.649 167.281L267.495 215.081L341.126 233.803L353.28 186.002Z" fill="#D95D39"/>
<path d="M340.134 239.766L266.503 221.044L254.349 268.844L327.98 287.566L340.134 239.766Z" fill="#F0A202"/>
<path d="M432.876 206.021L359.245 187.3L347.091 235.1L420.723 253.822L432.876 206.021Z" fill="#D95D39"/>
<path d="M419.08 260.444L345.448 241.722L333.295 289.523L406.926 308.244L419.08 260.444Z" fill="#7B9E89"/>
</svg>
