<?xml version="1.0" encoding="UTF-8"?>
<!DOCTYPE svg  PUBLIC '-//W3C//DTD SVG 1.1//EN'  'http://www.w3.org/Graphics/SVG/1.1/DTD/svg11.dtd'>
<svg clip-rule="evenodd" fill-rule="evenodd" stroke-linejoin="round" stroke-miterlimit="2" version="1.1" viewBox="0 0 76 99" xml:space="preserve" xmlns="http://www.w3.org/2000/svg">
    <g transform="translate(-192.45 -102.59)">
        <path d="m237.23 157.5c1.642 1.473 3.264 3.161 4.865 5.062 3 3.563 7.219 9.774 12.656 18.633 3.422 5.578 6.164 9.774 8.227 12.586l5.203 7.031h-16.734l-4.284-6.472c-0.14-0.234-0.421-0.633-0.843-1.196l-2.738-3.869-4.354-7.176-4.705-7.668c-2.902-4.033-5.562-7.243-7.979-9.63-1.666-1.645-3.22-2.973-4.665-3.98 5.356-0.886 10.713-2.078 15.351-3.321zm-30.713 0.562v42.75h-14.062v-98.226h24.609c9.937 0 17.824 2.461 23.66 7.383s8.754 11.578 8.754 19.968c0 5.719-1.43 10.665-4.289 14.836-2.859 4.172-6.961 7.289-12.305 9.352h1e-3c-7.464 1.887-15.498 3.292-24.545 3.839l-1.823 0.098zm4.219-43.523h-4.219v31.008h5.344c7.125 0 12.012-0.61 14.66-1.828 2.648-1.219 4.711-3.059 6.187-5.52 1.477-2.461 2.215-5.262 2.215-8.402 0-3.094-0.82-5.895-2.461-8.403-1.64-2.507-3.949-4.277-6.925-5.308-2.977-1.031-7.911-1.547-14.801-1.547z"/>
    </g>
</svg>
